<mxfile host="Electron" agent="Mozilla/5.0 (X11; Linux x86_64) AppleWebKit/537.36 (KHTML, like Gecko) draw.io/24.7.8 Chrome/128.0.6613.36 Electron/32.0.1 Safari/537.36" version="24.7.8">
  <diagram name="Page-1" id="NMtxE1FIFXrT-5mgBXdh">
    <mxGraphModel dx="1916" dy="1526" grid="1" gridSize="10" guides="1" tooltips="1" connect="1" arrows="1" fold="1" page="0" pageScale="1" pageWidth="1800" pageHeight="1200" math="1" shadow="0">
      <root>
        <mxCell id="0" />
        <mxCell id="1" parent="0" />
        <mxCell id="uqMEacUD2oAsyHFYx7fU-20" value="" style="rounded=0;whiteSpace=wrap;html=1;align=center;horizontal=1;verticalAlign=bottom;fillColor=#99CCFF;labelPosition=center;verticalLabelPosition=top;fontSize=15;" vertex="1" parent="1">
          <mxGeometry x="467" y="-123" width="156" height="226" as="geometry" />
        </mxCell>
        <mxCell id="uqMEacUD2oAsyHFYx7fU-14" value="Bitmap" style="rounded=0;whiteSpace=wrap;html=1;align=center;horizontal=1;verticalAlign=top;fillColor=#FFFFCC;fontSize=15;" vertex="1" parent="1">
          <mxGeometry x="270" y="-120" width="150" height="220" as="geometry" />
        </mxCell>
        <mxCell id="uqMEacUD2oAsyHFYx7fU-10" value="" style="edgeStyle=none;curved=1;rounded=0;orthogonalLoop=1;jettySize=auto;html=1;fontSize=15;startSize=8;endSize=8;" edge="1" parent="1" source="uqMEacUD2oAsyHFYx7fU-7" target="uqMEacUD2oAsyHFYx7fU-9">
          <mxGeometry relative="1" as="geometry" />
        </mxCell>
        <mxCell id="uqMEacUD2oAsyHFYx7fU-13" value="Verovio" style="edgeLabel;html=1;align=center;verticalAlign=middle;resizable=0;points=[];fontSize=15;" vertex="1" connectable="0" parent="uqMEacUD2oAsyHFYx7fU-10">
          <mxGeometry x="0.1195" y="2" relative="1" as="geometry">
            <mxPoint x="-7" y="2" as="offset" />
          </mxGeometry>
        </mxCell>
        <mxCell id="uqMEacUD2oAsyHFYx7fU-7" value=".mei" style="shape=note;whiteSpace=wrap;html=1;backgroundOutline=1;darkOpacity=0.05;size=22;fontSize=15;" vertex="1" parent="1">
          <mxGeometry x="-110" y="-50" width="60" height="80" as="geometry" />
        </mxCell>
        <mxCell id="uqMEacUD2oAsyHFYx7fU-16" value="" style="edgeStyle=none;curved=1;rounded=0;orthogonalLoop=1;jettySize=auto;html=1;fontSize=15;startSize=8;endSize=8;" edge="1" parent="1" source="uqMEacUD2oAsyHFYx7fU-9" target="uqMEacUD2oAsyHFYx7fU-15">
          <mxGeometry relative="1" as="geometry" />
        </mxCell>
        <mxCell id="uqMEacUD2oAsyHFYx7fU-17" value="AndroidSVG" style="edgeLabel;html=1;align=center;verticalAlign=middle;resizable=0;points=[];fontSize=15;" vertex="1" connectable="0" parent="uqMEacUD2oAsyHFYx7fU-16">
          <mxGeometry x="0.0617" y="1" relative="1" as="geometry">
            <mxPoint x="-11" y="1" as="offset" />
          </mxGeometry>
        </mxCell>
        <mxCell id="uqMEacUD2oAsyHFYx7fU-9" value="SVG" style="rounded=0;whiteSpace=wrap;html=1;fillColor=#f5f5f5;fontColor=#333333;strokeColor=#666666;fontSize=15;" vertex="1" parent="1">
          <mxGeometry x="30" y="-40" width="120" height="60" as="geometry" />
        </mxCell>
        <mxCell id="uqMEacUD2oAsyHFYx7fU-15" value="SVG" style="rounded=0;whiteSpace=wrap;html=1;fillColor=#f5f5f5;fontColor=#333333;strokeColor=#666666;fontSize=15;" vertex="1" parent="1">
          <mxGeometry x="270" y="-47.5" width="150" height="75" as="geometry" />
        </mxCell>
        <mxCell id="uqMEacUD2oAsyHFYx7fU-18" style="edgeStyle=none;curved=1;rounded=0;orthogonalLoop=1;jettySize=auto;html=1;exitX=0.5;exitY=0;exitDx=0;exitDy=0;fontSize=15;startSize=8;endSize=8;" edge="1" parent="1" source="uqMEacUD2oAsyHFYx7fU-14" target="uqMEacUD2oAsyHFYx7fU-14">
          <mxGeometry relative="1" as="geometry" />
        </mxCell>
        <mxCell id="uqMEacUD2oAsyHFYx7fU-19" value="Bitmap" style="rounded=0;whiteSpace=wrap;html=1;align=center;horizontal=1;verticalAlign=top;fillColor=#FFFFCC;fontSize=15;" vertex="1" parent="1">
          <mxGeometry x="470" y="-120" width="150" height="220" as="geometry" />
        </mxCell>
        <mxCell id="uqMEacUD2oAsyHFYx7fU-25" value="" style="rounded=1;whiteSpace=wrap;html=1;arcSize=4;fontSize=15;" vertex="1" parent="1">
          <mxGeometry x="670" y="-170" width="160" height="320" as="geometry" />
        </mxCell>
        <mxCell id="uqMEacUD2oAsyHFYx7fU-27" value="" style="rounded=1;whiteSpace=wrap;html=1;fontSize=15;" vertex="1" parent="1">
          <mxGeometry x="730" y="130" width="40" height="10" as="geometry" />
        </mxCell>
        <mxCell id="uqMEacUD2oAsyHFYx7fU-40" value="Viewport" style="rounded=0;whiteSpace=wrap;html=1;fillColor=#D5E8D4;verticalAlign=top;fontSize=15;" vertex="1" parent="1">
          <mxGeometry x="670" y="-160" width="160" height="280" as="geometry" />
        </mxCell>
        <mxCell id="uqMEacUD2oAsyHFYx7fU-35" value="" style="rounded=0;whiteSpace=wrap;html=1;align=center;horizontal=1;verticalAlign=bottom;fillColor=#99CCFF;labelPosition=center;verticalLabelPosition=top;fontSize=15;" vertex="1" parent="1">
          <mxGeometry x="672" y="-120" width="156" height="226" as="geometry" />
        </mxCell>
        <mxCell id="uqMEacUD2oAsyHFYx7fU-36" value="Bitmap" style="rounded=0;whiteSpace=wrap;html=1;align=center;horizontal=1;verticalAlign=top;fillColor=#FFFFCC;fontSize=15;" vertex="1" parent="1">
          <mxGeometry x="675" y="-117" width="150" height="220" as="geometry" />
        </mxCell>
        <mxCell id="uqMEacUD2oAsyHFYx7fU-26" value="" style="ellipse;whiteSpace=wrap;html=1;aspect=fixed;fontSize=15;" vertex="1" parent="1">
          <mxGeometry x="815" y="-160" width="10" height="10" as="geometry" />
        </mxCell>
        <mxCell id="uqMEacUD2oAsyHFYx7fU-42" value="" style="edgeStyle=none;curved=1;rounded=0;orthogonalLoop=1;jettySize=auto;html=1;fontSize=15;startSize=8;endSize=8;entryX=0;entryY=0;entryDx=0;entryDy=0;endArrow=none;endFill=0;exitX=0.75;exitY=1;exitDx=0;exitDy=0;" edge="1" parent="1" source="uqMEacUD2oAsyHFYx7fU-41" target="uqMEacUD2oAsyHFYx7fU-35">
          <mxGeometry relative="1" as="geometry" />
        </mxCell>
        <mxCell id="uqMEacUD2oAsyHFYx7fU-41" value="&lt;span style=&quot;color: rgb(0, 0, 0); font-family: Helvetica; font-size: 15px; font-style: normal; font-variant-ligatures: normal; font-variant-caps: normal; font-weight: 400; letter-spacing: normal; orphans: 2; text-align: center; text-indent: 0px; text-transform: none; widows: 2; word-spacing: 0px; -webkit-text-stroke-width: 0px; white-space: normal; background-color: rgb(255, 255, 255); text-decoration-thickness: initial; text-decoration-style: initial; text-decoration-color: initial; float: none; display: inline !important;&quot;&gt;Canvas&lt;/span&gt;" style="text;html=1;align=center;verticalAlign=middle;whiteSpace=wrap;rounded=0;fontSize=15;" vertex="1" parent="1">
          <mxGeometry x="600" y="-170" width="50" height="20" as="geometry" />
        </mxCell>
        <mxCell id="uqMEacUD2oAsyHFYx7fU-43" value="" style="edgeStyle=none;curved=1;rounded=0;orthogonalLoop=1;jettySize=auto;html=1;fontSize=15;startSize=8;endSize=8;entryX=1;entryY=0;entryDx=0;entryDy=0;endArrow=none;endFill=0;exitX=0.5;exitY=1;exitDx=0;exitDy=0;" edge="1" parent="1" source="uqMEacUD2oAsyHFYx7fU-41" target="uqMEacUD2oAsyHFYx7fU-20">
          <mxGeometry relative="1" as="geometry">
            <mxPoint x="652.5" y="-145" as="sourcePoint" />
            <mxPoint x="736" y="-110" as="targetPoint" />
          </mxGeometry>
        </mxCell>
        <mxCell id="uqMEacUD2oAsyHFYx7fU-44" value="SVG" style="rounded=0;whiteSpace=wrap;html=1;fillColor=#f5f5f5;fontColor=#333333;strokeColor=#666666;fontSize=15;" vertex="1" parent="1">
          <mxGeometry x="470" y="-47.5" width="150" height="75" as="geometry" />
        </mxCell>
        <mxCell id="uqMEacUD2oAsyHFYx7fU-45" value="SVG" style="rounded=0;whiteSpace=wrap;html=1;fillColor=#f5f5f5;fontColor=#333333;strokeColor=#666666;fontSize=15;" vertex="1" parent="1">
          <mxGeometry x="675" y="-47.5" width="150" height="75" as="geometry" />
        </mxCell>
      </root>
    </mxGraphModel>
  </diagram>
</mxfile>
